<svg width="100" height="20" viewBox="0 0 100 20" fill="none" xmlns="http://www.w3.org/2000/svg">
<path d="M33.6621 6.34068C34.0592 6.86105 34.3562 7.45136 34.538 8.08134C34.7328 8.7375 34.8314 9.41857 34.8304 10.1034C34.8506 10.9811 34.6821 11.8527 34.3365 12.6588C34.0385 13.3378 33.6018 13.9462 33.0549 14.4445C32.5381 14.9069 31.9343 15.2605 31.2794 15.4844C30.6495 15.7052 29.9877 15.8197 29.3206 15.8235C28.8966 15.8317 28.4732 15.7844 28.0613 15.6828C27.7311 15.589 27.4313 15.4985 27.1617 15.4112V20H23.9436L23.959 4.88286H27.0609C27.0903 5.07846 27.1127 5.26983 27.1281 5.45839C27.1435 5.64695 27.1575 5.83973 27.1729 6.03533C27.5239 5.5932 27.9802 5.24718 28.4993 5.02921C29.0293 4.79815 29.6007 4.67883 30.1782 4.67883C31.537 4.64097 32.8317 5.25858 33.6621 6.34068ZM67.3117 6.34068C67.7086 6.86105 68.0057 7.45136 68.1876 8.08134C68.3823 8.7375 68.4808 9.41857 68.48 10.1034C68.5001 10.9811 68.3317 11.8527 67.9861 12.6588C67.6881 13.3378 67.2514 13.9462 66.7045 14.4445C66.1889 14.9065 65.5866 15.2601 64.9332 15.4844C64.3033 15.7052 63.6413 15.8197 62.9743 15.8235C62.5503 15.8317 62.127 15.7844 61.7151 15.6828C61.3849 15.589 61.0849 15.4985 60.8155 15.4112V20H57.5974L57.6044 4.88286H60.7063C60.7357 5.07846 60.7581 5.26983 60.7735 5.45839C60.7889 5.64695 60.8043 5.83973 60.8183 6.03533C61.1696 5.59348 61.6257 5.24746 62.1446 5.02921C62.6745 4.79815 63.2461 4.67883 63.8236 4.67883C65.1837 4.63957 66.4803 5.25731 67.3117 6.34068ZM4.96698 4.5128C5.76477 4.50323 6.55991 4.60989 7.32735 4.82941C7.99124 5.02866 8.6203 5.33007 9.19241 5.72295L7.82264 7.87028C7.44921 7.62952 7.05367 7.42505 6.64176 7.25957C6.16577 7.07312 5.6583 6.98138 5.14747 6.9894C4.65357 6.9894 4.29259 7.06116 4.06872 7.20329C3.85983 7.3191 3.73055 7.5403 3.73153 7.78022C3.73153 8.12639 3.96477 8.38249 4.4311 8.54853C4.89744 8.71458 5.52664 8.90215 6.31856 9.1114C7.39688 9.41253 8.17984 9.82666 8.66773 10.3539C9.15561 10.881 9.39906 11.5818 9.39808 12.4562C9.41305 12.9904 9.27566 13.5178 9.00212 13.976C8.73475 14.403 8.37335 14.7626 7.94577 15.0271C7.48139 15.3161 6.97266 15.5262 6.44028 15.6491C5.87713 15.7847 5.29998 15.8531 4.72073 15.8531C3.81506 15.858 2.91373 15.7286 2.04556 15.469C1.27714 15.2538 0.574071 14.8495 0 14.2926L1.59643 12.2057C1.99519 12.5549 2.45691 12.8238 2.9564 12.998C3.47605 13.2006 4.02773 13.3074 4.58501 13.3132C4.98993 13.3251 5.39386 13.2637 5.77709 13.1317C6.07678 13.0346 6.27155 12.7438 6.2486 12.4281C6.24972 12.2968 6.21488 12.1678 6.14786 12.0552C6.05356 11.9191 5.92582 11.8099 5.77709 11.7386C5.53545 11.615 5.28361 11.5129 5.02434 11.4332C4.70114 11.3277 4.29259 11.2081 3.79869 11.0716C3.38776 10.9625 2.98592 10.8214 2.59682 10.6494C2.21597 10.4863 1.86017 10.2694 1.54046 10.0049C1.23293 9.74997 0.980665 9.43434 0.798916 9.07763C0.405055 8.24782 0.4259 7.27927 0.854879 6.46734C1.08798 6.05758 1.40573 5.70297 1.78671 5.42745C2.21499 5.11872 2.69448 4.88907 3.20265 4.7492C3.77686 4.58794 4.3708 4.50829 4.96698 4.5128ZM83.9727 4.52543C84.7585 4.51474 85.5381 4.6646 86.2645 4.96587C86.9315 5.24407 87.5355 5.65524 88.04 6.17462C88.5383 6.69246 88.9317 7.30275 89.1985 7.97157C89.7526 9.3883 89.7526 10.9635 89.1985 12.3802C88.6604 13.7409 87.602 14.8277 86.2603 15.3972C85.5358 15.706 84.7554 15.8604 83.9685 15.8503C83.1777 15.8596 82.3934 15.7052 81.6641 15.3972C80.9939 15.1139 80.3866 14.6991 79.8774 14.1772C79.3797 13.6592 78.9867 13.0489 78.7203 12.3802C78.4405 11.6799 78.2993 10.9314 78.3048 10.1766C78.3007 9.42109 78.4433 8.67205 78.7245 7.97157C78.9909 7.30289 79.3839 6.6926 79.8816 6.17462C80.3893 5.65383 80.9973 5.24252 81.6683 4.96587C82.3994 4.6653 83.183 4.51558 83.9727 4.52543ZM41.7156 4.52122C42.4883 4.50378 43.2553 4.65716 43.9627 4.97011C44.592 5.26012 45.1486 5.68861 45.5913 6.22389C46.0499 6.79041 46.3902 7.44418 46.5917 8.14607C46.8238 8.94239 46.9374 9.76895 46.9289 10.5988V11.1405H39.4224C39.4364 11.7128 39.6873 12.2142 40.1752 12.6448C40.6631 13.0754 41.3337 13.2897 42.1872 13.2878C43.0266 13.2878 43.7085 13.1636 44.2327 12.9149C44.6337 12.7367 45.0172 12.5214 45.3786 12.2719L46.705 14.3305C46.5847 14.4065 46.4046 14.5308 46.1649 14.7034C45.8728 14.9064 45.5601 15.077 45.2317 15.2128C44.7918 15.3975 44.3374 15.5448 43.8731 15.6533C43.283 15.7888 42.6791 15.8534 42.0738 15.8461C41.2457 15.857 40.4227 15.7139 39.6463 15.4239C38.9618 15.1671 38.3381 14.7699 37.8148 14.2574C37.3073 13.7519 36.9166 13.1404 36.6703 12.4661C36.4013 11.7236 36.2681 10.9384 36.2772 10.1485C36.2753 9.42012 36.4008 8.69712 36.6479 8.01239C36.8828 7.34863 37.2456 6.73793 37.7155 6.21545C38.1957 5.69226 38.777 5.27335 39.4238 4.98418C40.1458 4.66588 40.9275 4.508 41.7156 4.52122ZM14.5428 4.88286V10.9857C14.5428 11.588 14.6887 12.0626 14.9807 12.4098C15.2726 12.7569 15.7031 12.93 16.2721 12.929C16.5753 12.9352 16.8758 12.8696 17.1494 12.7376C17.6597 12.4851 18.0425 12.0303 18.2057 11.4824C18.2971 11.1978 18.3443 10.9007 18.3457 10.6016V4.88286H21.5637V15.4844H18.4534L18.3624 14.3587C17.9876 14.7893 17.5241 15.1326 17.0039 15.3648C16.4519 15.6258 15.8494 15.7609 15.2395 15.7602C14.0269 15.7602 13.0676 15.3986 12.3615 14.6753C11.6553 13.952 11.3033 12.8822 11.3051 11.4656V4.88286H14.5428ZM54.9362 4.67883C55.1805 4.67643 55.4245 4.69149 55.6665 4.72385C55.87 4.75481 56.0693 4.80814 56.2612 4.88286L55.7449 7.75347C55.3658 7.64076 54.9719 7.58715 54.5766 7.59446C53.8127 7.59446 53.1942 7.82425 52.7213 8.28397C52.2484 8.74369 52.0125 9.39563 52.0134 10.2399V15.4844H48.7715V4.88286H51.8734L51.9854 6.21545C52.3014 5.81145 52.6793 5.4605 53.1047 5.17555C53.5758 4.84445 54.1862 4.67883 54.9362 4.67883ZM76.5545 4.67883C76.7986 4.67643 77.0428 4.69149 77.2848 4.72385C77.4887 4.75495 77.6885 4.80828 77.8808 4.88286L77.3632 7.75347C76.9841 7.64076 76.59 7.58715 76.1949 7.59446C75.4309 7.59446 74.8129 7.82425 74.341 8.28397C73.8691 8.74369 73.633 9.39563 73.633 10.2399V15.4844H70.3898V4.88286H73.4917L73.6036 6.21545C73.9197 5.81145 74.2976 5.4605 74.723 5.17555C75.1949 4.84445 75.8055 4.67883 76.5545 4.67883ZM96.6742 0C97.2598 0.00239217 97.8422 0.0861192 98.405 0.249068C98.9918 0.416661 99.5358 0.70935 100 1.10744C99.7761 1.4536 99.5475 1.79652 99.3144 2.13607C99.0812 2.47562 98.8527 2.81854 98.6288 3.16471C98.4034 2.99796 98.1531 2.86836 97.8873 2.78055C97.6198 2.6881 97.339 2.64068 97.0562 2.63984C96.652 2.62154 96.2592 2.7783 95.9774 3.07043C95.7078 3.35186 95.5731 3.75853 95.5731 4.29044V4.87863H98.0678V7.43263H95.5731V15.4802H92.355L92.3564 7.43685H90.6481V4.88285H92.3564V4.33969C92.3392 3.67269 92.4657 3.00964 92.7272 2.3964C92.9535 1.88222 93.2876 1.42334 93.7066 1.05115C94.1106 0.697671 94.5805 0.428904 95.089 0.260326C95.5999 0.0879484 96.1353 0 96.6742 0ZM63.0485 7.45234C62.7187 7.44573 62.3919 7.5151 62.0929 7.65497C61.8237 7.78359 61.5853 7.96891 61.3933 8.19814C61.205 8.42553 61.0603 8.686 60.9666 8.96645C60.8716 9.25069 60.8243 9.54887 60.8266 9.84874L60.8225 12.6814C61.2422 12.9628 61.8643 13.1035 62.6889 13.1035C63.4826 13.1035 64.1081 12.8361 64.5652 12.3014C65.0223 11.7667 65.2508 11.0547 65.2508 10.1653C65.2508 9.82242 65.2095 9.48076 65.1276 9.14797C65.0536 8.83657 64.9238 8.54134 64.7443 8.27694C64.5701 8.02688 64.3394 7.822 64.0713 7.67889C63.7544 7.51904 63.4028 7.44122 63.0485 7.45234ZM29.4031 7.45234C29.0735 7.44573 28.7465 7.5151 28.4475 7.65497C28.1784 7.78359 27.9399 7.96891 27.7479 8.19814C27.5596 8.42553 27.4149 8.686 27.3212 8.96645C27.2262 9.25069 27.1789 9.54887 27.1813 9.84874L27.1771 12.6814C27.5968 12.9628 28.219 13.1035 29.0435 13.1035C29.8364 13.1035 30.4618 12.8361 30.9198 12.3014C31.3777 11.7667 31.6064 11.0547 31.6054 10.1653C31.6057 9.82242 31.564 9.48062 31.4809 9.14797C31.408 8.83642 31.2784 8.5412 31.0989 8.27694C30.9246 8.02646 30.6933 7.82158 30.4245 7.67889C30.1082 7.5189 29.757 7.44108 29.4031 7.45234ZM83.9685 7.35101C83.592 7.34482 83.2191 7.42573 82.8786 7.58741C82.5689 7.73573 82.2963 7.95201 82.0811 8.22064C81.867 8.49053 81.703 8.79715 81.597 9.12544C81.3731 9.8082 81.3731 10.545 81.597 11.2277C81.7048 11.5584 81.8685 11.8679 82.0811 12.1424C82.293 12.4171 82.5663 12.6377 82.8786 12.7869C83.2194 12.9476 83.5923 13.0275 83.9685 13.0205V13.0247C84.3417 13.0312 84.711 12.9498 85.0473 12.7869C85.3568 12.6334 85.629 12.4133 85.8448 12.1424C86.0619 11.8708 86.2262 11.5605 86.3289 11.2277C86.5379 10.5427 86.5379 9.81045 86.3289 9.12544C86.2279 8.7949 86.0635 8.48744 85.8448 8.22064C85.6258 7.95595 85.3542 7.74009 85.0473 7.58741C84.711 7.42503 84.3415 7.34397 83.9685 7.35101ZM41.6877 7.05271C41.3486 7.04553 41.012 7.11082 40.6999 7.24408C40.4346 7.35848 40.1941 7.52383 39.9919 7.73096C39.8106 7.9167 39.6655 8.13467 39.5638 8.37403C39.4724 8.59228 39.425 8.82657 39.4238 9.06354H43.8731C43.8692 8.827 43.8216 8.59327 43.7332 8.37403C43.6403 8.13566 43.5031 7.91741 43.3289 7.73096C43.1373 7.5265 42.9083 7.36116 42.6545 7.24408C42.3503 7.10914 42.02 7.0437 41.6877 7.05271Z" fill="#FA6484"/>
</svg>
