<svg xmlns="http://www.w3.org/2000/svg" width="30" height="30" viewBox="0 0 30 30">
    <g fill="none" fill-rule="evenodd" transform="translate(3 3)">
        <path fill="#FC6" d="M7.263 0c4.012 0 7.263.81 7.263 1.93 0 .057-.014.07-.03.07h.023v11.662c-2.816.28-4.84 1.027-4.84 1.91v4.313c-.757.075-1.57.115-2.418.115C3.248 20 0 19.091 0 17.97V2.029C-.002.908 3.25 0 7.263 0z"/>
        <path fill="#000064" fill-rule="nonzero" d="M7.263 6.933c4.012 0 7.263-.9 7.263-2.01v.792c0 1.11-3.251 2.01-7.263 2.01-4.012 0-7.263-.9-7.263-2.01v-.792c-.001 1.11 3.252 2.01 7.263 2.01zm0 3.168c4.012 0 7.263-.9 7.263-2.01v.793c0 1.109-3.252 2.009-7.263 2.009-4.01 0-7.263-.9-7.263-2.01v-.791c-.002 1.11 3.252 2.01 7.263 2.01zm0 3.169c4.012 0 7.263-.9 7.263-2.01v.792c0 1.11-3.251 2.01-7.263 2.01-4.01 0-7.263-.9-7.263-2.01v-.792c-.002 1.11 3.252 2.01 7.263 2.01zm0 3.169c4.012 0 7.263-.9 7.263-2.01v.792c0 1.11-3.252 2.01-7.263 2.01-4.01 0-7.263-.9-7.263-2.01v-.792c-.002 1.11 3.252 2.01 7.263 2.01z" opacity=".1"/>
        <path fill="#FC6" d="M16.74 13.538c4.01 0 7.26.84 7.26 1.96 0 .056-.013.098-.029.098h.023v6.376c0 1.12-3.248 2.028-7.26 2.028s-7.26-.91-7.26-2.03v-6.403c0-1.12 3.256-2.029 7.266-2.029z"/>
        <path fill="#000064" d="M16.737 20.448c4.011 0 7.263-.89 7.263-1.986v.782c0 1.096-3.251 1.987-7.263 1.987-4.012 0-7.263-.89-7.263-1.986v-.783c0 1.095 3.252 1.986 7.263 1.986z" opacity=".1"/>
        <ellipse cx="7.263" cy="2" fill="#FFF" opacity=".3" rx="7.263" ry="2"/>
        <ellipse cx="16.737" cy="15.538" fill="#FFF" opacity=".3" rx="7.263" ry="2"/>
        <path fill="#000064" d="M9.474 15.692v6.309c0 1.104 3.252 1.999 7.263 1.999v-6.312c-4.003 0-7.25-.894-7.263-1.996z" opacity=".1"/>
        <path fill="#000064" d="M7.258 20c.86 0 1.686-.04 2.453-.113V15.67a.6.6 0 0 1 .078-.282l-.002-.002-4.734 4.524c.696.059 1.437.091 2.205.091z" opacity=".1"/>
    </g>
</svg>
