<svg xmlns="http://www.w3.org/2000/svg" width="30" height="30" viewBox="0 0 30 30">
    <g fill="none" fill-rule="evenodd" transform="translate(2 2)">
        <path fill="#67AAF9" d="M22.5 15.24H27v9.863h-4.5z"/>
        <ellipse cx="14.425" cy="3.587" fill="#FC6" rx="3.6" ry="3.586"/>
        <ellipse cx="8.104" cy="11.656" fill="#FC6" rx="3.6" ry="3.586"/>
        <path fill="#F6C1B8" d="M15.323 22.414h-4.5c-.994 0-1.8-.803-1.8-1.793 0-.99.806-1.793 1.8-1.793h1.8c5.377 0 3.577-2.69 9.877-2.69v7.256c-.9 0-6.722 2.606-9.9 2.606-1.908 0-3.577-.973-7.2-2.69-1.719-.816-5.4-2.964-5.4-4.482 0-1.794 4.902.476 9.023 1.793"/>
        <path fill="#211F5E" d="M15.773 22.862a.45.45 0 0 0-.45-.448h-4.5c-.994 0-1.8-.803-1.8-1.793a53.392 53.392 0 0 1-.883-.292c-.086.76.159 1.52.671 2.09.512.569 1.244.893 2.012.891h4.5c.248 0 .45-.2.45-.448z" opacity=".15"/>
    </g>
</svg>
