<svg xmlns="http://www.w3.org/2000/svg" width="30" height="30" viewBox="0 0 30 30">
    <g fill="none" fill-rule="nonzero" transform="translate(1 2)">
        <path fill="#FA6484" d="M1.96 17.857a1.575 1.575 0 0 1-1.385-.926 1.587 1.587 0 0 1 .202-1.736c.3-.334.7-.567 1.143-.664a5.2 5.2 0 0 0-1.586-.76.462.462 0 1 1-.178-.792.487.487 0 0 1 .468-.1 5.1 5.1 0 0 1 2.525 1.525c.756.03 1.506.144 2.235.34a.474.474 0 0 1 .342.328.46.46 0 0 1-.12.453.486.486 0 0 1-.46.125c-.49-.127-.99-.22-1.493-.276.078.29.094.593.048.89-.097.879-.837 1.556-1.74 1.593zm.676-2.498a1.612 1.612 0 0 0-1.122.435.683.683 0 0 0-.073.74.62.62 0 0 0 .519.387.882.882 0 0 0 .796-.8 1.305 1.305 0 0 0-.12-.762z"/>
        <path fill="#C8446A" d="M1.96 17.857a1.575 1.575 0 0 1-1.385-.926 1.587 1.587 0 0 1 .202-1.736c.3-.334.7-.567 1.143-.664a5.2 5.2 0 0 0-1.586-.76.462.462 0 1 1-.178-.792.487.487 0 0 1 .468-.1 5.1 5.1 0 0 1 2.525 1.525c.756.03 1.506.144 2.235.34a.474.474 0 0 1 .342.328.46.46 0 0 1-.12.453.486.486 0 0 1-.46.125c-.49-.127-.99-.22-1.493-.276.078.29.094.593.048.89-.097.879-.837 1.556-1.74 1.593zm.676-2.498a1.612 1.612 0 0 0-1.122.435.683.683 0 0 0-.073.74.62.62 0 0 0 .519.387.882.882 0 0 0 .796-.8 1.305 1.305 0 0 0-.12-.762z"/>
        <path fill="#FA6484" d="M27.503 14.91a3.118 3.118 0 0 1-1.404-.48c-.192-.23-.738-2.262-1.766-3.844a5.604 5.604 0 0 1 1.938-2.52c-1.316-.69-2.656-1.11-5.32-.781-.701-.158-2.999-.542-2.999-.542h-.014c-.859-.17-1.73-.276-2.604-.314-1.063 0-2.7.122-2.7.122a16.338 16.338 0 0 0-3.31 1.022c-3.691 2.025-4.298 5.29-4.298 7.826 0 2.537 1.115 6.275 5.095 9.601h3.456v-1.922s3.38.24 4.086.24c.304.593.661 1.156 1.066 1.682h3.273v-2.883a23.357 23.357 0 0 0 2.75-2.402c1.348.131 2.735-.96 3.248-4.19 0-.475-.24-.615-.497-.615z"/>
        <ellipse cx="21.718" cy="13.036" fill="#F7F7F7" rx="1" ry="1"/>
        <path fill="#C8446A" d="M12.31 8.571a.467.467 0 0 1-.15-.908c1.999-.68 4.162-.694 6.17-.04a.466.466 0 0 1 .178.799.462.462 0 0 1-.466.087 8.848 8.848 0 0 0-5.582.037.461.461 0 0 1-.15.025z"/>
        <path fill="#FA6484" d="M.6 12.879a.46.46 0 0 0-.579.306.47.47 0 0 0 .302.587c1.889.608 2.442 1.612 2.332 2.35a.866.866 0 0 1-.767.8v.935a1.77 1.77 0 0 0 1.678-1.59c.168-1.123-.52-2.6-2.967-3.388z"/>
        <ellipse cx="15.256" cy="3.75" fill="#FC6" rx="3.769" ry="3.75"/>
    </g>
</svg>
